Simulation
nRows=46
nColumns=15
endheader
time  TH_x TH_y TH_z SC_y  SC_z  SC_x  AC_y  AC_z  AC_x  GH_y  GH_z  GH_yy  EL_x  PS_y
4.8020000000000005  0.000000  0.000000  0.000000  -47.50345905035401  11.253744739320792  -18.170511690367036  47.43311655610821  31.52811647641709  20.963441317873205  19.8075153134722  79.01772685960196  -18.082839273305567  13.634816175448584  120.000000
4.850020000000001  0.000000  0.000000  0.000000  -47.49270647225652  11.30114595367394  -18.35320248427009  47.180739434715846  31.862321628156067  21.279200530315165  19.8669038272662  79.06913166026189  -18.204512788910883  13.585377025211404  120.000000
4.898040000000001  0.000000  0.000000  0.000000  -47.486879196855455  11.292697734874292  -18.6015522759778  46.99960057948107  32.10747726439122  21.508664253280664  20.108206659489895  78.8185676950564  -17.997582452660993  13.437385632496385  120.000000
4.946060000000001  0.000000  0.000000  0.000000  -47.47994645369554  11.253921272635878  -18.886013163131302  46.86843106852002  32.27327825308788  21.667731085952777  20.57445157450442  78.14598480499473  -17.55314820270826  13.234245596392359  120.000000
4.99408  0.000000  0.000000  0.000000  -47.39094229974373  11.185542780596402  -19.201459173321506  46.76090025660242  32.364346763882104  21.760384398261078  21.247546195966176  76.99473027806313  -16.937929735491743  13.00868734987751  120.000000
5.0421000000000005  0.000000  0.000000  0.000000  -47.167501022562014  11.071813462484194  -19.554961723036545  46.673382871762605  32.37908504882256  21.772516269210175  22.09010654505894  75.3576784893168  -16.194031133613993  12.791572957039525  120.000000
5.090120000000001  0.000000  0.000000  0.000000  -46.80535428269458  10.886032331939878  -19.955664160107982  46.6179033208693  32.312204198334015  21.67995745950744  23.06325739017972  73.25343387348543  -15.358160167491594  12.609363317423938  120.000000
5.138140000000001  0.000000  0.000000  0.000000  -46.31723295386164  10.597901253396902  -20.409744477450168  46.60416622039836  32.159227936281056  21.457397853676614  24.124913518783917  70.71366336688332  -14.462256871714477  12.478066211801947  120.000000
5.186160000000001  0.000000  0.000000  0.000000  -45.71652146136854  10.182215587797232  -20.916212131970834  46.6314168194301  31.920451388786187  21.086487950551163  25.23358083573459  67.77829803304378  -13.526551579594603  12.402118473649812  120.000000
5.234180000000001  0.000000  0.000000  0.000000  -45.0136415000747  9.62268859107519  -21.46452218945408  46.68715304946724  31.602395713513783  20.56219740220313  26.351331940698007  64.4966036981885  -12.554894406149007  12.37298065216496  120.000000
5.2822000000000005  0.000000  0.000000  0.000000  -44.217450478004295  8.917141095989846  -22.035650606064358  46.752119170041574  31.21951629387897  19.89286879184137  27.444711026094634  60.92809084180652  -11.534189906657433  12.37047440280788  120.000000
5.330220000000001  0.000000  0.000000  0.000000  -43.33581482765838  8.077189494914448  -22.604153462646273  46.809212291974724  30.793494647209457  19.100614545736146  28.486813865136174  57.14328468292709  -10.441406999103314  12.369156357304394  120.000000
5.378240000000001  0.000000  0.000000  0.000000  -42.37691312987609  7.128179535883878  -23.142305393471315  46.85204949585061  30.350053230713588  18.218526117628414  29.458235097732345  53.22145840130116  -9.252354438052594  12.346712024385795  120.000000
5.426260000000001  0.000000  0.000000  0.000000  -41.3522231272307  6.107073968785827  -23.62599515264276  46.88679618363035  29.91172391927504  17.285892701424597  30.345629424033888  49.24671014527405  -7.951287472205973  12.290072721650386  120.000000
5.474280000000001  0.000000  0.000000  0.000000  -40.28061889904752  5.059325398032078  -24.03907051658705  46.926766415769215  29.48935332199485  16.34358185841516  31.141431254510028  45.30259392180634  -6.537957096724616  12.200555803671172  120.000000
5.5223  0.000000  0.000000  0.000000  -39.18842970883977  4.03813683466991  -24.379159108830184  46.98453625113442  29.080894309157188  15.432240033540854  31.84666872784782  41.46779648599096  -5.029301502513454  12.092995188177454  120.000000
5.570320000000001  0.000000  0.000000  0.000000  -38.1060571114156  3.097267775117727  -24.654615843819393  47.0699183456459  28.683907197890967  14.591843556473556  32.47543073780927  37.80934709369374  -3.456027225941876  11.990482798972712  120.000000
5.618340000000001  0.000000  0.000000  0.000000  -37.06891878182513  2.27456282757526  -24.86118252064791  47.19761783703269  28.307169740557267  13.852254809847807  33.05035174552405  34.3691573831132  -1.8503337168990928  11.918695500589582  120.000000
5.666360000000001  0.000000  0.000000  0.000000  -36.11384089256898  1.5908822849919202  -24.97505293310606  47.3918771594031  27.96532204958617  13.222172166769859  33.59349945067705  31.162610920709973  -0.23385082402965832  11.901328078855833  120.000000
5.714380000000001  0.000000  0.000000  0.000000  -35.267955024020836  1.061866460804111  -24.97624515439097  47.67881017055895  27.665431431403743  12.697548106889078  34.12152794217398  28.193349163224855  1.3856529687934407  11.958072957592  120.000000
5.762400000000001  0.000000  0.000000  0.000000  -34.54492691217926  0.699601851718329  -24.860733313314256  48.07953876563924  27.40288560428543  12.271665432640745  34.64484722409475  25.462851099095932  3.0104302136918903  12.104272887321072  120.000000
5.810420000000001  0.000000  0.000000  0.000000  -33.94891684760409  0.5095232462098567  -24.63682492304885  48.61107991314473  27.166845040514698  11.933468296669133  35.1737918148392  22.974263316302093  4.640341251167255  12.350535426120155  120.000000
5.858440000000001  0.000000  0.000000  0.000000  -33.48021710152897  0.48805090527005895  -24.320599136803484  49.28267229479022  26.94608086932483  11.669306925270504  35.73068633132357  20.734360144958526  6.254632750735758  12.700894582401245  120.000000
5.906460000000001  0.000000  0.000000  0.000000  -33.14122929453908  0.6184417850712914  -23.929429667621026  50.084366492215544  26.730601305441493  11.470260774848674  36.356457433730824  18.749110104010423  7.800840399379549  13.149521792776136  120.000000
5.954480000000001  0.000000  0.000000  0.000000  -32.93775689053909  0.8706882582484824  -23.476586284059323  50.977483792101495  26.51179593768259  11.336729827607925  37.106938234933175  17.01520351168978  9.197692550718493  13.680259011483594  120.000000
6.002500000000001  0.000000  0.000000  0.000000  -32.874052040323896  1.206554102705943  -22.96724367993755  51.897018912624624  26.28306204344124  11.273820424528854  38.043264705610454  15.513853180911463  10.348575206250647  14.268757124314249  120.000000
6.050520000000001  0.000000  0.000000  0.000000  -32.94294714766013  1.5903201136436351  -22.399158685825515  52.76943186868589  26.04106117017874  11.276849555856208  39.229711076802765  14.21020424907136  11.149407290909448  14.886330781122318  120.000000
6.098540000000001  0.000000  0.000000  0.000000  -33.12040963586783  1.9958927135512998  -21.771692608075366  53.53798912985537  25.796451019672993  11.330129486866797  40.717568614645465  13.061743967292017  11.510054263170627  15.501982736681102  120.000000
6.146560000000001  0.000000  0.000000  0.000000  -33.37522882613442  2.40015761348664  -21.088942959914263  54.188673877551786  25.57750235264163  11.409554103041575  42.53492748497723  12.034237178213335  11.365245534059396  16.080836097735858  120.000000
6.194580000000001  0.000000  0.000000  0.000000  -33.671563344999484  2.790482354184532  -20.357077230420895  54.75003291837466  25.40532990256128  11.480521859711322  44.71693293094863  11.106656581134093  10.658533298823112  16.591745965749016  120.000000
6.242600000000001  0.000000  0.000000  0.000000  -33.97891678651152  3.1686723162947152  -19.588576242519355  55.23884780842823  25.270563509843164  11.526174007058541  47.30728531982177  10.265470929686447  9.347878952467969  17.01156490256481  120.000000
6.2906200000000005  0.000000  0.000000  0.000000  -34.283532883634656  3.5374559024427397  -18.80279969098432  55.65262100491407  25.14661896078918  11.548502390279655  50.33506718303859  9.503201526004533  7.419493212417211  17.32267267425717  120.000000
6.338640000000001  0.000000  0.000000  0.000000  -34.5771109934546  3.89631501574726  -18.020321297488376  55.999387492600896  25.01220420687625  11.546939574494056  53.797674987061036  8.81675436245582  4.906905602204014  17.523496708019575  120.000000
6.386660000000001  0.000000  0.000000  0.000000  -34.851685041032844  4.240751758618378  -17.25826878510388  56.29356577857402  24.85455927989091  11.520320205497036  57.63601123242255  8.203948276193504  1.9128912679337033  17.633154330505487  120.000000
6.434680000000001  0.000000  0.000000  0.000000  -35.10015202584714  4.560556756568953  -16.5285667173754  56.548449711217245  24.668371436884843  11.46859070469242  61.71742629338018  7.660778461173864  -1.382054335575373  17.685972251702267  120.000000
6.482700000000001  0.000000  0.000000  0.000000  -35.31411777762968  4.840782084599752  -15.8389378727998  56.773200601757964  24.45333847909055  11.391613479029695  65.83940486742527  7.179238471223753  -4.7345859499627725  17.720265393035962  120.000000
6.5307200000000005  0.000000  0.000000  0.000000  -35.484364970338305  5.0634798177640095  -15.195400569862734  56.97371054251426  24.212260854539778  11.285651672847651  69.74862732507144  6.74828469148981  -7.868838897034185  17.76578533800592  120.000000
6.578740000000001  0.000000  0.000000  0.000000  -35.60218331094708  5.2110316454895385  -14.604763191381924  57.15153915135264  23.94777542375272  11.143375346690751  73.16590396515004  6.3561197466259225  -10.508780697480324  17.834112344705918  120.000000
6.626760000000001  0.000000  0.000000  0.000000  -35.661393817884615  5.270499592908999  -14.076525683562744  57.30484255280226  23.660159029933453  10.954729688161994  75.80068273811857  5.995376106270495  -12.392397050184925  17.917336178650576  120.000000
6.674780000000001  0.000000  0.000000  0.000000  -35.657703874789284  5.23786350334907  -13.623929703692294  57.429768543956285  23.34571071847985  10.71045481299188  77.3433638795837  5.668596372214562  -13.255920298800115  17.99368027738063  120.000000
6.722800000000001  0.000000  0.000000  0.000000  -35.58831835682559  5.119462275011495  -13.263456499575247  57.52310656232478  22.99707657269211  10.40589392509844  77.45459294543699  5.3941649466445964  -12.810373959977623  18.035474212241006  120.000000
6.770820000000001  0.000000  0.000000  0.000000  -35.45034380949497  4.929834116190633  -13.013058257861733  57.58326468641901  22.60456601145631  10.045990186504007  75.80561203893707  5.210652106710072  -10.76907641202851  18.014100690061312  120.000000
6.818840000000001  0.000000  0.000000  0.000000  -35.24209297062609  4.686555508044108  -12.888566153178054  57.611831425214085  22.160095724708356  9.647429475756878  72.23509384940884  5.180243472800768  -6.995170189120649  17.902601993572066  120.000000
6.866860000000001  0.000000  0.000000  0.000000  -34.9660942686844  4.4050025631054215  -12.898599887605018  57.612897006806065  21.662310762935018  9.238811382734882  67.01861285082016  5.38479106899736  -1.7691795995889539  17.676084951337764  120.000000
6.914880000000001  0.000000  0.000000  0.000000  -34.63523801332681  4.096223729931048  -13.039059559751227  57.591134191863674  21.122708483321617  8.857290793708943  60.99747063948876  5.910576581600209  4.079171318376531  17.31477545847604  120.000000
6.962900000000001  0.000000  0.000000  0.000000  -34.270747813220446  3.769774181650471  -13.293714111809999  57.54328211660103  20.56756880754277  8.542684807505756  55.238423448311835  6.825946204842782  9.505820531182698  16.81153049945223  120.000000
